<svg xmlns="http://www.w3.org/2000/svg" version="1.1" xmlns:xlink="http://www.w3.org/1999/xlink" xmlns:svgjs="http://svgjs.com/svgjs" width="1440" height="560" preserveAspectRatio="none" viewBox="0 0 1440 560"><g mask="url(&quot;#SvgjsMask1043&quot;)" fill="none"><rect width="1440" height="560" x="0" y="0" fill="#0e2a47"></rect><path d="M 0,63 C 57.6,86.8 172.8,172.8 288,182 C 403.2,191.2 460.8,96.4 576,109 C 691.2,121.6 748.8,264.8 864,245 C 979.2,225.2 1036.8,21.2 1152,10 C 1267.2,-1.2 1382.4,153.2 1440,189L1440 560L0 560z" fill="#184a7e"></path><path d="M 0,408 C 96,420.4 288,488.2 480,470 C 672,451.8 768,318.2 960,317 C 1152,315.8 1344,434.6 1440,464L1440 560L0 560z" fill="#2264ab"></path></g><defs><mask id="SvgjsMask1043"><rect width="1440" height="560" fill="#ffffff"></rect></mask></defs></svg>